<svg width="109" height="141" viewBox="0 0 109 141" fill="none" xmlns="http://www.w3.org/2000/svg">
<path fill-rule="evenodd" clip-rule="evenodd" d="M10.4685 0H76.574C76.569 0.0906108 76.569 0.181428 76.574 0.272039C76.6861 0.698398 76.8379 1.11331 77.0274 1.51133C77.2247 1.91509 77.2711 2.37607 77.1584 2.81107C77.1347 2.89671 77.0927 2.97619 77.0353 3.04403C76.9779 3.11187 76.9064 3.16645 76.8259 3.20402C76.4833 3.32492 76.1609 2.97228 75.9896 2.64986C75.8184 2.32745 75.5766 1.9345 75.2138 1.95465C75.1324 1.96904 75.0547 1.99973 74.9854 2.04487C74.916 2.09001 74.8566 2.14867 74.8105 2.21735C74.7644 2.28603 74.7326 2.3633 74.7171 2.44455C74.7016 2.52579 74.7026 2.60933 74.7201 2.69017C74.8034 3.01344 74.9955 3.29812 75.2642 3.49621C75.5394 3.68615 75.7869 3.91333 75.9997 4.17127C76.1 4.3046 76.1591 4.4643 76.1698 4.63076C76.1805 4.79721 76.1424 4.96319 76.0602 5.10829C74.9922 6.51886 73.7932 7.66747 72.6244 8.98737C72.1339 9.44254 71.802 10.0428 71.6773 10.7002C71.7057 11.343 71.9508 11.9573 72.3725 12.4433C72.8433 13.0295 73.271 13.6491 73.6521 14.2972C74.0325 14.9476 74.1849 15.7064 74.0854 16.4533C69.1835 16.2262 64.3737 17.8398 60.6006 20.9773C56.8275 24.1147 54.3635 28.5494 53.6925 33.4104C53.3882 35.8704 52.9203 38.3074 52.292 40.7051C51.2901 38.6531 49.8198 36.8653 47.9998 35.486C47.6623 35.1443 47.2398 34.8988 46.7757 34.7748C46.3117 34.6508 45.823 34.6529 45.3601 34.7807C44.8168 35.1081 44.3903 35.598 44.1409 36.1812C43.0791 37.9968 41.7163 39.6186 40.1107 40.9772C39.8027 40.6259 39.5886 40.2024 39.4882 39.7462C39.3878 39.2899 39.4044 38.8157 39.5364 38.3676C39.7379 37.4507 40.1712 36.6044 40.3525 35.6875C40.5071 34.9242 40.4899 34.1361 40.3021 33.3802C40.1692 32.7591 39.8101 32.2097 39.2946 31.8387C39.0429 31.6583 38.7339 31.5762 38.4259 31.6078C38.1179 31.6393 37.832 31.7823 37.622 32.0099C37.4695 32.2567 37.3887 32.541 37.3887 32.8311C37.3887 33.1212 37.4695 33.4055 37.622 33.6523C37.9468 34.1329 38.2396 34.6344 38.4986 35.1535C38.734 35.9662 38.695 36.8337 38.3878 37.622C38.08 38.4026 37.8538 39.213 37.7127 40.0401C37.6579 40.0774 37.6007 40.1111 37.5414 40.1409C36.1389 39.1477 35.0092 37.8171 34.2568 36.2719C34.0961 35.8288 33.8257 35.4336 33.4709 35.1233C33.2874 34.9978 33.0774 34.9162 32.8573 34.8847C32.6372 34.8533 32.4128 34.8728 32.2014 34.9419C31.7748 35.0938 31.4171 35.3942 31.1939 35.7883C31.0955 35.9496 31.0314 36.1295 31.0054 36.3167C30.9794 36.5038 30.9921 36.6944 31.0427 36.8764C31.2442 37.491 31.9495 37.7631 32.544 38.025C34.0491 38.803 35.3955 39.8555 36.5137 41.1283C36.6814 41.2761 36.8154 41.4582 36.9067 41.6623C36.9601 41.833 36.9705 42.0143 36.9371 42.19C36.9037 42.3658 36.8275 42.5306 36.7152 42.6698C36.5042 42.936 36.2526 43.1672 35.9697 43.355C35.0859 44.1285 34.0167 44.6597 32.8664 44.8965C32.5238 44.8965 32.1813 44.8965 31.8588 44.9671C31.5172 44.9936 31.1927 45.1276 30.9319 45.3499C30.8036 45.4647 30.7128 45.6155 30.6714 45.7827C30.6301 45.9498 30.6401 46.1256 30.7002 46.287C30.7745 46.5027 30.8964 46.6989 31.0569 46.8611C31.2173 47.0233 31.4122 47.1473 31.6271 47.224C32.0717 47.2834 32.5227 47.1796 32.8966 46.9318C33.2631 46.6882 33.601 46.4044 33.9042 46.0855C34.6691 45.2675 35.6244 44.6514 36.685 44.292C36.8005 44.2394 36.9259 44.2121 37.0528 44.2121C37.1797 44.2121 37.3051 44.2394 37.4205 44.292C37.5303 44.4071 37.6112 44.5465 37.6567 44.6988C37.7023 44.8512 37.7111 45.0122 37.6825 45.1686C37.6182 46.4016 37.3028 47.6084 36.7556 48.7152C36.5506 49.0568 36.3882 49.4222 36.2719 49.8033C36.2245 49.9922 36.2256 50.1901 36.2749 50.3785C36.3242 50.5669 36.4202 50.7399 36.554 50.8814C36.6653 50.9694 36.7931 51.0343 36.9297 51.0723C37.0664 51.1104 37.2093 51.1208 37.35 51.1031C37.6314 51.0629 37.9001 50.9595 38.1359 50.8008C38.489 50.6007 38.7734 50.2987 38.952 49.9343C39.1079 49.4972 39.129 49.0233 39.0125 48.5741C38.9117 48.1308 38.7505 47.6975 38.68 47.2441C38.5465 46.4158 38.718 45.5671 39.1626 44.8556C39.6073 44.1441 40.295 43.6181 41.0981 43.3751C42.3777 43.0023 43.2543 41.7328 44.3122 40.9167C44.3859 40.8179 44.4886 40.7444 44.6059 40.7065C44.7233 40.6686 44.8495 40.6681 44.9671 40.7051C45.1963 40.7966 45.4001 40.9417 45.5616 41.1283C46.5382 42.2275 47.2545 43.5327 47.6573 44.9469C48.1006 46.3474 48.3928 47.7882 48.8361 49.1887C47.627 53.632 44.8059 57.8033 42.3676 61.6924C39.9293 65.5816 37.3299 69.4304 35.6472 73.7831C33.9646 78.1357 33.3601 82.9518 34.9017 87.2943C34.9823 87.5261 35.0729 87.7477 35.1636 87.9795H10.4685V0ZM78.6395 0C78.6697 0.217258 78.6697 0.437651 78.6395 0.654909C78.5238 1.14224 78.443 1.6372 78.3977 2.13601C78.3977 2.62971 78.7403 3.14356 79.234 3.14356C79.7277 3.14356 80.0098 2.75062 80.2415 2.3879C80.5207 1.97951 80.8605 1.61599 81.2491 1.30982C81.6712 1.02414 82.1886 0.915593 82.6899 1.00755C82.9373 1.0326 83.1715 1.13151 83.362 1.29144C83.5524 1.45136 83.6904 1.6649 83.7579 1.90427C83.7916 2.20065 83.737 2.5004 83.6007 2.76576C83.4644 3.03111 83.2527 3.25021 82.9921 3.39545C82.465 3.65612 81.9153 3.86857 81.3498 4.03021C81.0649 4.12012 80.802 4.2688 80.5781 4.46665C80.3542 4.66449 80.1743 4.90711 80.0501 5.17882C79.9712 5.40677 79.9557 5.65189 80.0054 5.88794C80.0551 6.12399 80.1681 6.34208 80.3322 6.51886C80.6947 6.81465 81.0987 7.05566 81.5312 7.23423C81.9342 7.46596 82.3171 7.88914 82.2163 8.34253C82.1511 8.54891 82.0126 8.7243 81.8271 8.83566C81.6415 8.94701 81.4216 8.98664 81.2088 8.94707C80.7867 8.82548 80.4266 8.54818 80.2012 8.17125C79.9594 7.80853 79.778 7.39544 79.5362 7.02264C79.3965 6.77763 79.1995 6.57019 78.9619 6.41811C78.8401 6.34532 78.7034 6.30116 78.562 6.28894C78.4206 6.27672 78.2783 6.29677 78.1458 6.34758C77.9226 6.48384 77.7413 6.67909 77.6219 6.91181C76.7397 8.32521 75.9877 9.81579 75.375 11.3652C76.0261 12.1836 76.7662 12.927 77.5816 13.5818C78.4599 14.2275 79.1008 15.1447 79.4052 16.1914C80.0522 16.2575 80.7057 16.1707 81.313 15.9379C81.9203 15.7052 82.4644 15.333 82.9015 14.8513C83.755 13.8777 84.5236 12.8328 85.1987 11.7279C85.6143 11.0669 86.1676 10.5033 86.8208 10.0755C87.4624 9.7619 88.1388 9.52517 88.8359 9.37024C89.5453 9.24822 90.1939 8.89377 90.6798 8.36269C91.0454 7.88753 91.5227 7.51012 92.0694 7.26402C92.6161 7.01792 93.2151 6.91078 93.8132 6.95211C94.5596 7.05887 95.2883 7.26559 95.9795 7.56672C96.7625 7.84085 97.5596 8.07292 98.3674 8.26193V0H78.6395ZM98.3976 18.6699C97.7729 19.204 97.1482 19.6775 96.5135 20.2317C95.5766 21.0478 94.4877 21.671 93.3095 22.0654C90.4682 22.8614 87.3649 21.1989 84.5135 21.9848C83.4929 22.3088 82.5724 22.8893 81.8403 23.6708C81.1082 24.4523 80.589 25.4086 80.3322 26.4483C80.2315 26.7525 80.2315 27.0811 80.3322 27.3853C80.3601 27.4591 80.4024 27.5267 80.4566 27.5841C80.5109 27.6414 80.576 27.6874 80.6483 27.7192C80.7205 27.7511 80.7983 27.7683 80.8773 27.7698C80.9562 27.7713 81.0347 27.757 81.108 27.7278C81.7831 27.345 81.8939 26.3878 82.1156 25.6422C82.2006 25.2958 82.3187 24.9585 82.4682 24.6347C82.5428 24.475 82.6506 24.3332 82.7844 24.2185C82.9182 24.1038 83.0749 24.019 83.244 23.9697C83.4126 23.9217 83.5929 23.9372 83.7508 24.0133C83.9087 24.0895 84.0331 24.221 84.1004 24.3828C84.1325 24.4949 84.1391 24.6127 84.12 24.7278C84.1008 24.8428 84.0563 24.9521 83.9896 25.0478C83.8596 25.2401 83.7147 25.422 83.5564 25.5918C83.2102 26.0068 82.9653 26.4966 82.841 27.0226C82.7796 27.1861 82.755 27.3612 82.7689 27.5353C82.7828 27.7095 82.835 27.8784 82.9216 28.0301C83.0708 28.1902 83.2544 28.3143 83.4587 28.3929C83.6629 28.4714 83.8824 28.5024 84.1004 28.4835C85.013 28.4818 85.9193 28.6351 86.7805 28.9369C87.1153 29.0721 87.4076 29.2949 87.6269 29.5817C87.7295 29.7268 87.7919 29.8964 87.8078 30.0733C87.8238 30.2503 87.7926 30.4283 87.7176 30.5893C87.5732 30.7875 87.3687 30.9337 87.1345 31.0063C86.9003 31.079 86.649 31.074 86.4178 30.9923C85.9586 30.7962 85.5281 30.5386 85.1382 30.2266C84.778 29.9859 84.3741 29.8182 83.9493 29.7329C83.6855 29.6707 83.4101 29.6782 83.1501 29.7548C82.8901 29.8313 82.6545 29.9742 82.4664 30.1693C82.2784 30.3645 82.1444 30.6052 82.0776 30.8679C82.0107 31.1306 82.0134 31.4061 82.0853 31.6674C82.2266 32.285 82.5331 32.8527 82.972 33.3097C83.4052 33.7832 83.2541 34.6699 83.0929 35.3248C83.0704 35.4883 83.0056 35.6432 82.9049 35.774C82.8042 35.9048 82.671 36.0069 82.5186 36.0704C82.1256 36.1611 81.773 35.8185 81.511 35.4759C81.2078 34.9796 81.0185 34.4221 80.9569 33.8437C80.9508 33.3487 80.8934 32.8558 80.7856 32.3727C80.7242 32.1345 80.5866 31.9229 80.3938 31.7701C80.201 31.6173 79.9635 31.5317 79.7176 31.5263C79.244 31.5767 78.9418 32.0402 78.71 32.4432C78.4783 32.8462 78.0854 33.2694 77.6118 33.219C77.4989 33.204 77.3901 33.167 77.2916 33.1099C77.193 33.0529 77.1067 32.977 77.0375 32.8865C76.8698 32.6305 76.7804 32.3311 76.7804 32.0251C76.7804 31.719 76.8698 31.4196 77.0375 31.1636C77.3872 30.6636 77.8498 30.2528 78.3876 29.9646C77.5251 29.4937 76.7058 28.9475 75.9393 28.3324C75.6673 28.1187 75.4383 27.8554 75.2642 27.5566C75.1548 27.2818 75.1055 26.9868 75.1194 26.6914C75.1333 26.396 75.2101 26.107 75.3448 25.8437C75.5866 25.2996 75.9292 24.8362 76.171 24.2719L69.9846 28.6246C66.962 30.7606 63.758 33.0276 62.1056 36.3726C60.826 38.952 60.5842 41.9243 59.5464 44.6144C61.1552 44.0992 62.853 43.9209 64.5338 44.0905C65.2242 44.1144 65.8942 44.3308 66.4683 44.7152C67.0362 45.2414 67.4476 45.9144 67.6572 46.6598C68.3289 48.3726 68.9233 50.0989 69.4406 51.8386C69.5413 52.1711 70.0451 51.9796 70.2768 51.7177C70.4792 51.4186 70.5975 51.0706 70.6194 50.7101C70.7527 49.8916 71.0145 49.0993 71.3952 48.3625C71.7658 47.601 72.3789 46.9843 73.1383 46.6094C73.3743 46.4907 73.6348 46.4288 73.899 46.4288C74.1632 46.4288 74.4237 46.4907 74.6597 46.6094C74.7718 46.6729 74.8687 46.76 74.9437 46.8648C75.0188 46.9695 75.07 47.0894 75.094 47.216C75.118 47.3425 75.1141 47.4728 75.0826 47.5978C75.0511 47.7227 74.9927 47.8393 74.9116 47.9394C74.5992 48.2315 74.1156 48.1812 73.7126 48.3121C73.0476 48.5237 72.705 49.229 72.3927 49.8638C72.3063 50.0001 72.2475 50.1522 72.2199 50.3112C72.1922 50.4703 72.1962 50.6332 72.2315 50.7907C72.304 50.926 72.4043 51.0445 72.5259 51.1382C72.6475 51.232 72.7875 51.299 72.9368 51.3348C73.7775 51.5664 74.6653 51.5664 75.506 51.3348C76.3423 51.1333 77.1584 50.8109 77.9846 50.559C78.1581 50.4844 78.3449 50.446 78.5337 50.446C78.7225 50.446 78.9094 50.4844 79.0828 50.559C79.2621 50.6892 79.3983 50.8701 79.4737 51.0785C79.5491 51.2868 79.5604 51.513 79.506 51.7277C79.4666 51.9664 79.3782 52.1944 79.2465 52.3973C79.1147 52.6002 78.9423 52.7736 78.7403 52.9066C78.3938 53.0714 78.0168 53.1619 77.6333 53.1723C77.2498 53.1827 76.8684 53.1128 76.5136 52.967C75.8027 52.6759 75.03 52.5685 74.2667 52.6547C73.9972 52.7234 73.7454 52.8488 73.5282 53.0225C73.3111 53.1963 73.1334 53.4144 73.0073 53.6622C72.8817 53.9087 72.8104 54.1792 72.7982 54.4556C72.7861 54.732 72.8333 55.0077 72.9368 55.2643C73.16 55.7492 73.5076 56.1663 73.9443 56.4733C74.3675 56.7957 74.831 57.0779 75.2239 57.4305C75.6416 57.7704 75.9297 58.2435 76.04 58.7705C76.0878 59.0348 76.0512 59.3074 75.9355 59.5497C75.8198 59.792 75.6307 59.9917 75.3952 60.1207C75.1526 60.2023 74.8939 60.2238 74.6412 60.1835C74.3885 60.1431 74.1494 60.042 73.9443 59.8889C73.3127 59.4753 72.8238 58.8773 72.5438 58.1761C72.3625 57.7428 72.2516 57.2693 72.0602 56.826C71.9685 56.599 71.832 56.3928 71.6589 56.2197C71.4858 56.0466 71.2796 55.9101 71.0526 55.8184C70.7253 55.7421 70.3822 55.77 70.0715 55.8983C69.7607 56.0265 69.4979 56.2487 69.3197 56.5338C68.9861 57.1174 68.7865 57.7678 68.7353 58.438C68.6547 58.8713 68.6244 59.3549 68.5841 59.7781C68.5793 59.9852 68.5199 60.1874 68.412 60.3643C68.3041 60.5412 68.1515 60.6865 67.9695 60.7856C67.7766 60.832 67.575 60.8276 67.3843 60.7728C67.1936 60.7181 67.0203 60.6149 66.8814 60.4733C66.7141 60.3587 66.5735 60.2093 66.4692 60.0355C66.3649 59.8616 66.2993 59.6673 66.2768 59.4657C66.2768 58.7705 67.093 58.3474 67.2844 57.6824C67.3731 57.196 67.2798 56.6939 67.0224 56.2718C66.7661 55.847 66.5886 55.3794 66.4985 54.8915C66.2973 53.6508 65.8595 52.4605 65.2088 51.3852C65.039 51.0059 64.7669 50.6814 64.4229 50.4482C64.0911 50.3337 63.7378 50.295 63.3891 50.3352C63.0403 50.3753 62.705 50.4931 62.4078 50.6799C61.1635 51.2754 59.885 51.7968 58.5791 52.2416C57.2844 52.6839 55.9127 52.8553 54.5489 52.7454C52.3021 57.5816 49.2996 61.8133 46.3071 66.166C43.3147 70.5186 40.5238 75.2339 39.4457 80.4833C38.8289 82.9597 38.9872 85.5657 39.8991 87.9493H53.1787C53.8156 86.7407 54.0587 85.3633 53.8739 84.0097C53.7454 83.1039 53.3728 82.2502 52.7959 81.5402C52.219 80.8302 51.4596 80.2906 50.5993 79.9795C49.9113 79.7638 49.1794 79.7283 48.4737 79.8765C47.768 80.0247 47.1122 80.3516 46.5691 80.8259C47.0475 79.925 47.8187 79.2142 48.7555 78.8108C49.7641 78.4365 50.8612 78.3707 51.9072 78.6219C52.9533 78.8731 53.9009 79.4299 54.6295 80.2213C55.3366 81.0327 55.8515 81.9931 56.1358 83.0311C56.4202 84.0691 56.4667 85.1578 56.2718 86.2163C56.169 86.8305 56.0001 87.4318 55.7681 88.0097H98.3976V18.6699Z" fill="#1D1D1B"/>
<path d="M11.0831 136.906V140.695H10.3979V131.304H12.8262C13.716 131.239 14.5996 131.496 15.3148 132.03C15.6009 132.289 15.8247 132.609 15.9696 132.967C16.1144 133.324 16.1764 133.71 16.1511 134.095C16.1557 134.475 16.0789 134.851 15.926 135.199C15.7731 135.546 15.5475 135.857 15.2644 136.11C14.9646 136.361 14.6238 136.559 14.2569 136.695C13.8065 136.833 13.3375 136.901 12.8665 136.896L11.0831 136.906ZM11.0831 136.362H12.8262C13.2028 136.371 13.578 136.313 13.9345 136.191C14.2411 136.088 14.5251 135.928 14.7707 135.717C14.9925 135.513 15.1707 135.266 15.2947 134.992C15.4174 134.709 15.4792 134.403 15.476 134.095C15.4949 133.785 15.4452 133.474 15.3302 133.185C15.2153 132.896 15.038 132.635 14.811 132.423C14.2306 131.993 13.5159 131.786 12.7959 131.838H11.0831V136.362Z" fill="#1D1D1B"/>
<path d="M23.8083 136.443V140.695H23.1736V131.304H25.5716C26.4242 131.243 27.2733 131.463 27.9897 131.929C28.2619 132.149 28.4772 132.432 28.6174 132.753C28.7577 133.073 28.8189 133.423 28.7957 133.773C28.8049 134.117 28.7432 134.46 28.6144 134.78C28.4878 135.076 28.3028 135.344 28.0703 135.566C27.8257 135.795 27.5426 135.979 27.234 136.11C26.8829 136.265 26.5083 136.361 26.1257 136.392C26.2367 136.464 26.3325 136.556 26.4078 136.664L29.6421 140.695H29.0174C28.9541 140.706 28.8892 140.706 28.826 140.695C28.767 140.661 28.7182 140.612 28.6849 140.554L25.6622 136.755C25.6311 136.71 25.5975 136.666 25.5615 136.624C25.5216 136.591 25.4776 136.564 25.4305 136.543C25.3773 136.533 25.3225 136.533 25.2693 136.543H25.0275L23.8083 136.443ZM23.8083 135.939H25.4406C25.8188 135.944 26.1956 135.893 26.559 135.788C26.8626 135.702 27.1466 135.559 27.3952 135.365C27.6156 135.182 27.7913 134.951 27.9091 134.69C28.0345 134.415 28.0965 134.115 28.0904 133.813C28.1092 133.53 28.0595 133.247 27.9455 132.987C27.8315 132.728 27.6565 132.499 27.4355 132.322C26.8682 131.963 26.2013 131.793 25.5313 131.838H23.8083V135.939Z" fill="#1D1D1B"/>
<path d="M41.8336 131.304V131.868H36.8866V135.667H40.9974V136.211H36.8866V140.13H41.8437V140.695H36.2014V131.304H41.8336Z" fill="#1D1D1B"/>
<path d="M53.6018 138.357L53.6925 138.145C53.72 138.079 53.7537 138.015 53.7933 137.954L57.4305 131.435C57.4305 131.375 57.5011 131.334 57.5414 131.324H57.6925H58.156V140.715H57.5615V132.695C57.5615 132.634 57.5615 132.584 57.5615 132.523C57.5562 132.46 57.5562 132.396 57.5615 132.332L53.8739 138.891C53.8502 138.943 53.8119 138.987 53.7635 139.017C53.7152 139.048 53.659 139.064 53.6018 139.062H53.5011C53.4445 139.061 53.3893 139.045 53.3413 139.014C53.2934 138.984 53.2546 138.942 53.229 138.891L49.4406 132.322C49.4406 132.453 49.4406 132.574 49.4406 132.695V140.695H48.8462V131.304H49.3701H49.5213C49.5667 131.328 49.6023 131.367 49.622 131.415L53.4003 137.954C53.4824 138.08 53.5499 138.216 53.6018 138.357Z" fill="#1D1D1B"/>
<path d="M66.6798 140.695H65.9946V131.304H66.6798V140.695Z" fill="#1D1D1B"/>
<path d="M77.9039 140.211C78.3228 140.218 78.7384 140.135 79.1231 139.969C79.4684 139.823 79.7752 139.599 80.0198 139.314C80.2797 139.023 80.4753 138.679 80.5941 138.307C80.7261 137.911 80.7908 137.495 80.7855 137.078V131.274H81.4606V137.078C81.4639 137.572 81.3821 138.062 81.2188 138.529C81.0645 138.962 80.8246 139.359 80.5135 139.697C80.2031 140.038 79.8212 140.307 79.3951 140.483C78.9162 140.683 78.4026 140.785 77.8838 140.785C77.365 140.785 76.8513 140.683 76.3725 140.483C75.9464 140.307 75.5645 140.038 75.2541 139.697C74.943 139.359 74.7031 138.962 74.5488 138.529C74.3855 138.062 74.3037 137.572 74.307 137.078V131.274H74.982V137.068C74.9802 137.486 75.0483 137.901 75.1836 138.297C75.3022 138.667 75.4941 139.01 75.7478 139.304C75.9977 139.583 76.3032 139.806 76.6445 139.959C77.0406 140.135 77.4707 140.221 77.9039 140.211Z" fill="#1D1D1B"/>
<path d="M93.8232 138.357C93.8491 138.285 93.8794 138.214 93.9139 138.146L94.0045 137.954L97.7325 131.435C97.7421 131.41 97.7569 131.387 97.776 131.368C97.7951 131.349 97.8181 131.334 97.8433 131.324H97.9844H98.4579V140.715H97.8635V132.544C97.8635 132.473 97.8635 132.413 97.8635 132.352L94.1758 138.911C94.1529 138.962 94.1161 139.005 94.0697 139.035C94.0233 139.065 93.9693 139.082 93.9139 139.083H93.803C93.7476 139.082 93.6936 139.065 93.6472 139.035C93.6008 139.005 93.564 138.962 93.5411 138.911L89.7527 132.342C89.7527 132.473 89.7527 132.594 89.7527 132.715V140.715H89.1582V131.324H89.6318H89.7728C89.7728 131.324 89.8433 131.324 89.8836 131.435L93.7023 137.954C93.7023 138.085 93.7728 138.216 93.8232 138.357Z" fill="#1D1D1B"/>
<path d="M0 109.249C0 103.063 4.84633 98.1659 11.4256 98.1659C14.5848 98.0602 17.6655 99.1628 20.0402 101.249L16.5843 105.41C15.1937 104.11 13.3596 103.389 11.4559 103.395C9.96636 103.536 8.58605 104.237 7.59479 105.358C6.60354 106.479 6.07553 107.934 6.11782 109.43C6.16011 110.925 6.76953 112.349 7.82253 113.412C8.87553 114.474 10.2933 115.097 11.7884 115.153C12.9819 115.203 14.1635 114.898 15.1838 114.277V111.697H11.0025V107.395H20.7657V116.947C18.169 119.081 14.9076 120.239 11.5466 120.221C4.93701 120.282 0 115.728 0 109.249Z" fill="#1D1D1B"/>
<path d="M24.0403 98.6392H41.1082V103.677H29.8639V106.891H40.0503V111.526H29.8639V114.861H41.3097V119.899H24.0403V98.6392Z" fill="#1D1D1B"/>
<path d="M43.5364 109.249C43.5114 107.777 43.7847 106.316 44.3398 104.952C44.8949 103.589 45.7203 102.352 46.7663 101.317C47.8123 100.281 49.0572 99.468 50.426 98.9265C51.7947 98.385 53.2589 98.1263 54.7303 98.1659C56.474 98.092 58.2077 98.4652 59.7666 99.2499C61.3254 100.035 62.6578 101.205 63.6371 102.65L59.3348 105.985C58.811 105.229 58.1124 104.611 57.2985 104.183C56.4846 103.755 55.5794 103.529 54.6598 103.526C51.6976 103.526 49.622 106.045 49.622 109.199C49.622 112.352 51.7178 114.861 54.6598 114.861C55.6019 114.86 56.5298 114.631 57.3635 114.192C58.1972 113.753 58.9118 113.118 59.4457 112.342L63.8688 115.486C62.8508 117.03 61.4494 118.284 59.8017 119.125C58.154 119.965 56.3163 120.364 54.4684 120.282C53.0189 120.301 51.5804 120.028 50.2387 119.479C48.897 118.93 47.6797 118.117 46.6593 117.087C45.639 116.057 44.8366 114.833 44.3001 113.486C43.7635 112.139 43.5038 110.698 43.5364 109.249Z" fill="#1D1D1B"/>
<path d="M66.3977 98.6392H72.2818V107.244L79.5966 98.6392H86.5689L78.5085 107.707L86.8107 119.798H79.7579L74.4279 111.909L72.2717 114.307V119.899H66.3977V98.6392Z" fill="#1D1D1B"/>
<path d="M86.1358 109.249C86.0554 106.97 86.658 104.72 87.8661 102.786C89.0742 100.853 90.8326 99.3242 92.9157 98.3974C94.9987 97.4706 97.3112 97.1876 99.5563 97.5847C101.801 97.9819 103.877 99.041 105.515 100.626C107.154 102.211 108.281 104.25 108.753 106.481C109.224 108.711 109.018 111.032 108.161 113.145C107.304 115.257 105.835 117.066 103.943 118.337C102.05 119.609 99.8212 120.286 97.5413 120.281C96.0631 120.324 94.5914 120.071 93.2126 119.537C91.8338 119.002 90.576 118.197 89.5131 117.169C88.4502 116.141 87.6039 114.91 87.0238 113.55C86.4438 112.19 86.1419 110.727 86.1358 109.249ZM102.992 109.249C103.02 108.512 102.901 107.777 102.641 107.087C102.38 106.397 101.984 105.766 101.476 105.232C100.968 104.698 100.358 104.271 99.6824 103.976C99.0066 103.681 98.2785 103.525 97.5413 103.516C96.807 103.523 96.0819 103.679 95.4096 103.974C94.7373 104.269 94.1318 104.698 93.6299 105.233C93.1279 105.769 92.7398 106.401 92.489 107.092C92.2383 107.782 92.1301 108.516 92.171 109.249C92.1427 109.983 92.2617 110.716 92.5209 111.404C92.7801 112.092 93.1744 112.721 93.6804 113.254C94.1865 113.788 94.7941 114.214 95.4676 114.509C96.141 114.804 96.8666 114.961 97.6017 114.972C98.3372 114.969 99.0644 114.816 99.739 114.523C100.414 114.23 101.022 113.803 101.526 113.268C102.03 112.732 102.42 112.1 102.672 111.409C102.924 110.718 103.033 109.983 102.992 109.249Z" fill="#1D1D1B"/>
<path d="M86.8913 125.44H23.5667V126.005H86.8913V125.44Z" fill="#1D1D1B"/>
</svg>
