<svg width="20" height="21" viewBox="0 0 20 21" fill="none" xmlns="http://www.w3.org/2000/svg">
<path d="M10.0022 4.93109C7.16453 4.93109 4.87563 7.2205 4.87563 10.0588C4.87563 12.8972 7.16453 15.1866 10.0022 15.1866C12.8399 15.1866 15.1288 12.8972 15.1288 10.0588C15.1288 7.2205 12.8399 4.93109 10.0022 4.93109ZM10.0022 13.3925C8.16843 13.3925 6.66927 11.8975 6.66927 10.0588C6.66927 8.22017 8.16397 6.72513 10.0022 6.72513C11.8405 6.72513 13.3352 8.22017 13.3352 10.0588C13.3352 11.8975 11.836 13.3925 10.0022 13.3925ZM16.5343 4.72134C16.5343 5.38629 15.9989 5.91737 15.3385 5.91737C14.6737 5.91737 14.1428 5.38183 14.1428 4.72134C14.1428 4.06085 14.6782 3.52531 15.3385 3.52531C15.9989 3.52531 16.5343 4.06085 16.5343 4.72134ZM19.9297 5.93522C19.8539 4.33308 19.488 2.91391 18.3146 1.74466C17.1456 0.575406 15.7267 0.209457 14.1249 0.129127C12.4741 0.0354082 7.52593 0.0354082 5.87507 0.129127C4.27775 0.204994 2.8589 0.570943 1.68544 1.74019C0.511991 2.90945 0.150586 4.32861 0.0702733 5.93076C-0.0234244 7.58199 -0.0234244 12.5312 0.0702733 14.1825C0.146124 15.7846 0.511991 17.2038 1.68544 18.373C2.8589 19.5423 4.27328 19.9082 5.87507 19.9885C7.52593 20.0823 12.4741 20.0823 14.1249 19.9885C15.7267 19.9127 17.1456 19.5467 18.3146 18.373C19.4835 17.2038 19.8494 15.7846 19.9297 14.1825C20.0234 12.5312 20.0234 7.58645 19.9297 5.93522ZM17.797 15.9542C17.449 16.8289 16.7752 17.5028 15.8963 17.8553C14.58 18.3775 11.4568 18.257 10.0022 18.257C8.54768 18.257 5.41997 18.373 4.1082 17.8553C3.23369 17.5072 2.55996 16.8334 2.20747 15.9542C1.68544 14.6377 1.80591 11.5137 1.80591 10.0588C1.80591 8.60397 1.68991 5.47555 2.20747 4.16349C2.55549 3.28878 3.22922 2.6149 4.1082 2.26234C5.42443 1.74019 8.54768 1.86069 10.0022 1.86069C11.4568 1.86069 14.5845 1.74466 15.8963 2.26234C16.7708 2.61044 17.4445 3.28432 17.797 4.16349C18.319 5.48001 18.1985 8.60397 18.1985 10.0588C18.1985 11.5137 18.319 14.6421 17.797 15.9542Z" fill="black"/>
</svg>
