<svg width="56" height="56" viewBox="0 0 56 56" fill="none" xmlns="http://www.w3.org/2000/svg">
<circle cx="27.7721" cy="27.7721" r="27.7721" fill="#F4F4F4"/>
<path fill-rule="evenodd" clip-rule="evenodd" d="M22.9879 20.5258C22.4766 20.0145 21.6477 20.0145 21.1364 20.5258C20.6251 21.0371 20.6251 21.866 21.1364 22.3773L26.2941 27.535L21.1366 32.6926C20.6253 33.2039 20.6253 34.0328 21.1366 34.5441C21.6478 35.0553 22.4768 35.0553 22.988 34.5441L28.1456 29.3865L33.0387 34.2796C33.55 34.7909 34.3789 34.7909 34.8902 34.2796C35.4015 33.7683 35.4015 32.9394 34.8902 32.4281L29.9971 27.535L34.8904 22.6417C35.4017 22.1305 35.4017 21.3015 34.8904 20.7903C34.3791 20.279 33.5502 20.279 33.0389 20.7903L28.1456 25.6835L22.9879 20.5258Z" fill="#B0B3B2"/>
</svg>
