<svg width="19" height="25" viewBox="0 0 19 25" fill="none" xmlns="http://www.w3.org/2000/svg">
<path fill-rule="evenodd" clip-rule="evenodd" d="M8.25083 21.2643L8.25081 1.48581C8.25081 0.808482 8.79989 0.259399 9.47722 0.259399C10.1545 0.259399 10.7036 0.80848 10.7036 1.48581L10.7036 21.3916L16.8707 16.0086C17.3095 15.6256 18.0208 15.6256 18.4596 16.0086C18.8983 16.3915 18.8983 17.0125 18.4596 17.3954L10.3673 24.4589C10.1397 24.6576 9.83861 24.7532 9.54033 24.7457C9.24839 24.7487 8.95537 24.653 8.73261 24.4585L0.640346 17.3951C0.201591 17.0121 0.20159 16.3912 0.640345 16.0082C1.0791 15.6253 1.79046 15.6253 2.22922 16.0082L8.25083 21.2643Z" fill="white"/>
</svg>
